<svg width="20" height="20" viewBox="0 0 16 16" fill="none" xmlns="http://www.w3.org/2000/svg">
<path d="M15.9999 7.962C16.0074 9.54437 15.5455 11.0934 14.6726 12.4133C13.7996 13.7331 12.5549 14.7644 11.0958 15.3767C9.63668 15.9891 8.02874 16.1549 6.47535 15.8534C4.92197 15.5518 3.4929 14.7963 2.36891 13.6825C1.24492 12.5687 0.476491 11.1465 0.160812 9.59596C-0.154867 8.04538 -0.00361278 6.436 0.595443 4.97139C1.1945 3.50678 2.21444 2.25272 3.52628 1.36782C4.83812 0.482926 6.38292 0.00694046 7.96529 7.53931e-05C10.0864 -0.00912708 12.1244 0.824443 13.6311 2.3175C15.1378 3.81055 15.9898 5.84086 15.9999 7.962Z" fill="#B9B9B9"/>
<path d="M15.3983 7.96372C15.4048 9.42675 14.9773 10.8588 14.1699 12.0789C13.3625 13.299 12.2115 14.2523 10.8624 14.8183C9.51323 15.3842 8.02657 15.5374 6.59036 15.2585C5.15416 14.9796 3.8329 14.2811 2.79367 13.2513C1.75444 12.2215 1.04389 10.9067 0.751881 9.47305C0.459867 8.03945 0.5995 6.55146 1.15312 5.19721C1.70674 3.84297 2.6495 2.68328 3.86217 1.86481C5.07484 1.04633 6.50298 0.605811 7.966 0.59895C9.92815 0.590208 11.8134 1.36118 13.2072 2.7423C14.601 4.12341 15.3891 6.00158 15.3983 7.96372Z" fill="#626262"/>
<path d="M8.13574 1.07319C8.60631 0.989601 9.08793 0.989601 9.5585 1.07319C10.0336 1.14836 10.4928 1.30221 10.9172 1.5284C11.3249 1.77359 11.7095 2.05513 12.0665 2.3696C12.43 2.66384 12.79 2.96674 13.1344 3.29734C13.4852 3.62244 13.7914 3.9926 14.0449 4.39815C14.3056 4.80047 14.5194 5.23139 14.6818 5.68245C15.0009 6.591 15.0906 7.56427 14.9432 8.51585H14.8982C14.7611 7.61236 14.5291 6.72587 14.2058 5.87111C14.0506 5.44884 13.8679 5.03717 13.6589 4.63875C13.4407 4.24072 13.2003 3.85529 12.9389 3.48426C12.6732 3.10872 12.3474 2.7795 11.9748 2.50979C11.5925 2.25875 11.1809 2.05531 10.7493 1.904C10.3322 1.73091 9.91679 1.56822 9.48061 1.44359C9.04444 1.31897 8.60134 1.22377 8.1392 1.13377L8.13574 1.07319Z" fill="white"/>
<path d="M11.747 5.35374C11.2104 5.19797 10.6531 4.97815 10.0906 4.75487C10.0109 4.53976 9.86789 4.35388 9.68037 4.22177C9.31169 3.90156 8.62108 3.91021 8.02394 4.04868C7.39196 3.87657 6.72814 3.85699 6.08712 3.99156C0.970718 5.40047 3.87163 8.83794 1.99365 12.2996C2.2602 12.8674 5.14208 16.175 9.30997 15.2871C9.30997 15.2871 7.88374 11.8617 11.1014 10.2174C13.7132 8.87603 15.5981 6.40091 11.747 5.35374Z" fill="#E2E2E2"/>
<path d="M12.3843 7.60231C12.3847 7.66364 12.3668 7.7237 12.333 7.77488C12.2993 7.82606 12.2511 7.86608 12.1945 7.88987C12.138 7.91365 12.0757 7.92014 12.0155 7.90851C11.9552 7.89688 11.8998 7.86766 11.8562 7.82453C11.8126 7.78141 11.7828 7.72632 11.7705 7.66624C11.7582 7.60615 11.764 7.54377 11.7871 7.48698C11.8103 7.43018 11.8497 7.38153 11.9005 7.34717C11.9513 7.31281 12.0112 7.29429 12.0725 7.29395C12.1132 7.29372 12.1536 7.30152 12.1913 7.31689C12.229 7.33226 12.2633 7.35492 12.2923 7.38355C12.3213 7.41219 12.3443 7.44624 12.3601 7.48378C12.3759 7.52131 12.3841 7.56159 12.3843 7.60231Z" fill="white"/>
<path d="M8.02832 4.0502C8.40045 4.07619 9.74878 4.51448 10.0967 4.75355C9.80763 3.91161 8.83144 3.80074 8.02832 4.0502Z" fill="#A6A6A6"/>
<path d="M8.38138 6.17554C8.38172 6.45872 8.29806 6.73564 8.14099 6.97126C7.98391 7.20688 7.76047 7.39062 7.49895 7.49922C7.23742 7.60783 6.94956 7.63642 6.67177 7.58139C6.39399 7.52635 6.13878 7.39016 5.93842 7.19004C5.73806 6.98992 5.60156 6.73487 5.54619 6.45716C5.49082 6.17944 5.51906 5.89154 5.62735 5.62989C5.73564 5.36823 5.9191 5.14457 6.15454 4.98721C6.38997 4.82985 6.66679 4.74585 6.94997 4.74585C7.13786 4.74562 7.32396 4.78244 7.49762 4.85418C7.67127 4.92593 7.82909 5.0312 7.96203 5.16398C8.09497 5.29677 8.20043 5.45445 8.27239 5.62802C8.34435 5.80159 8.38138 5.98764 8.38138 6.17554Z" fill="white"/>
<path d="M7.95803 6.18788C7.95803 6.38677 7.89905 6.5812 7.78855 6.74657C7.67805 6.91195 7.52099 7.04084 7.33724 7.11696C7.15348 7.19307 6.95129 7.21298 6.75622 7.17418C6.56115 7.13538 6.38196 7.0396 6.24132 6.89896C6.10068 6.75832 6.0049 6.57914 5.9661 6.38407C5.9273 6.18899 5.94721 5.98679 6.02333 5.80304C6.09944 5.61929 6.22834 5.46223 6.39371 5.35173C6.55908 5.24123 6.75351 5.18225 6.9524 5.18225C7.21911 5.18225 7.4749 5.2882 7.66349 5.47679C7.85208 5.66539 7.95803 5.92117 7.95803 6.18788Z" fill="#58595B"/>
<path d="M13.5431 8.23377C12.3835 9.05073 11.0663 9.67037 9.19523 9.67037C8.31942 9.67037 8.14287 8.74264 7.56476 9.19612C7.26706 9.43152 6.21297 9.95769 5.3787 9.91788C4.54443 9.87808 3.18917 9.38825 2.81185 7.60547C2.66299 9.38825 2.5851 10.702 1.91699 12.2078C3.24975 14.342 6.42933 15.9897 9.31466 15.2801C9.00483 13.1148 10.8967 10.9945 11.9629 9.91443C12.3679 9.50422 13.1398 8.83265 13.5449 8.23897L13.5431 8.23377Z" fill="#E2E2E2"/>
<path d="M13.4977 8.28578C13.1287 8.60382 12.7168 8.86835 12.274 9.07159C11.8326 9.28106 11.3725 9.44853 10.8997 9.5718C10.4246 9.71328 9.92869 9.77183 9.4337 9.74488C8.92812 9.72435 8.44898 9.51354 8.09229 9.15467L8.10786 9.13736C8.51182 9.38158 8.97551 9.50917 9.44754 9.50602C9.92004 9.52041 10.3927 9.48151 10.8565 9.39006C11.325 9.2923 11.7834 9.15091 12.2256 8.96773C12.675 8.79739 13.098 8.5643 13.4822 8.27539L13.4977 8.28578Z" fill="#58595B"/>
</svg>
