<svg width="20" height="20" viewBox="0 0 16 16" fill="none" xmlns="http://www.w3.org/2000/svg">
<path d="M13.9165 9.56589C13.6332 9.73643 13.3026 9.76744 13.0507 9.62791C12.7358 9.44186 12.5469 9.02326 12.5469 8.44961V6.69768C12.5469 5.86047 12.2163 5.25581 11.6496 5.10077C10.6893 4.8217 9.96513 5.98449 9.6975 6.4186L7.99729 9.10078V5.79845C7.98155 5.03876 7.72966 4.58915 7.25738 4.44961C6.94253 4.35659 6.47025 4.4031 6.01371 5.08527L2.21972 11.0698C1.71595 10.124 1.44833 9.06977 1.44833 8C1.44833 4.3876 4.39221 1.45736 7.99729 1.45736C11.6024 1.45736 14.5462 4.3876 14.5462 8V8.0155V8.03101C14.5777 8.72868 14.3573 9.28682 13.9165 9.56589ZM15.9946 8V7.9845V7.96899C15.9788 3.58139 12.3895 0 7.99729 0C3.58933 0 0 3.5814 0 8C0 12.4031 3.58933 16 7.99729 16C10.0281 16 11.9487 15.2403 13.4285 13.8605C13.7276 13.5814 13.7434 13.1318 13.46 12.8372C13.1924 12.5426 12.7358 12.5271 12.4367 12.7907C12.4367 12.7907 12.4367 12.7907 12.421 12.8062C11.2245 13.9225 9.61879 14.5581 7.9658 14.5581C6.02945 14.5581 4.29776 13.7209 3.10131 12.3876L6.51748 6.99225V9.48837C6.51748 10.6822 6.98976 11.0698 7.38332 11.1783C7.77689 11.2868 8.37511 11.2093 9.02056 10.2016L10.8939 7.2093C10.9569 7.11628 11.0041 7.02325 11.0671 6.96124V8.48062C11.0671 9.5969 11.5237 10.4961 12.3108 10.9302C13.0192 11.3333 13.9165 11.2868 14.6564 10.8372C15.5695 10.2481 16.0575 9.22481 15.9946 8Z" fill="white"/>
</svg>
