<svg width="32" height="22" viewBox="0 0 32 22" fill="none" xmlns="http://www.w3.org/2000/svg">
<g clip-path="url(#clip0_4068_21313)">
<path d="M11.3526 16.2955C10.9377 17.1514 10.2436 17.8417 9.38386 18.2533C8.52416 18.6649 7.54978 18.7735 6.62011 18.5613C5.69043 18.3492 4.86051 17.8288 4.26612 17.0854C3.67173 16.3419 3.34806 15.4194 3.34806 14.4687C3.34806 13.5181 3.67173 12.5955 4.26612 11.8521C4.86051 11.1086 5.69043 10.5883 6.62011 10.3761C7.54978 10.1639 8.52416 10.2725 9.38386 10.6842C10.2436 11.0958 10.9377 11.786 11.3526 12.642H14.8944C14.4471 10.8578 13.3606 9.29823 11.8397 8.25717C10.3188 7.2161 8.46838 6.76542 6.63719 6.99002C4.806 7.21462 3.12043 8.09901 1.89807 9.47655C0.675716 10.8541 0.000976563 12.6297 0.000976562 14.4687C0.000976563 16.3078 0.675716 18.0834 1.89807 19.4609C3.12043 20.8384 4.806 21.7228 6.63719 21.9474C8.46838 22.172 10.3188 21.7213 11.8397 20.6803C13.3606 19.6392 14.4471 18.0797 14.8944 16.2955H11.3526Z" fill="white"/>
<path d="M24.4405 6.92978C22.9403 6.9272 21.4737 7.37223 20.2293 8.20759V0H16.8811V21.9966H20.2293V20.7231C21.2101 21.3787 22.3314 21.7961 23.5032 21.942C24.675 22.0878 25.8648 21.9579 26.9772 21.5628C28.0896 21.1677 29.0937 20.5183 29.9089 19.6666C30.7241 18.815 31.3279 17.7848 31.6717 16.6587C32.0155 15.5326 32.0898 14.3418 31.8888 13.1819C31.6877 12.0219 31.2168 10.9251 30.5138 9.97928C29.8108 9.03346 28.8953 8.26496 27.8406 7.73539C26.7859 7.20582 25.6215 6.92991 24.4405 6.92978ZM24.4405 18.6634C23.6073 18.6641 22.7926 18.4184 22.0995 17.9575C21.4064 17.4966 20.866 16.8411 20.5466 16.074C20.2273 15.3069 20.1434 14.4626 20.3055 13.6479C20.4677 12.8333 20.8686 12.0848 21.4575 11.4973C22.0464 10.9098 22.7969 10.5096 23.6141 10.3473C24.4312 10.185 25.2783 10.268 26.0482 10.5856C26.818 10.9033 27.4761 11.4414 27.9391 12.132C28.402 12.8225 28.6492 13.6344 28.6492 14.4649C28.6492 15.5778 28.2059 16.6452 27.4167 17.4325C26.6275 18.2197 25.5571 18.6625 24.4405 18.6634Z" fill="white"/>
</g>
<defs>
<clipPath id="clip0_4068_21313">
<rect width="32" height="22" fill="white"/>
</clipPath>
</defs>
</svg>
