<svg width="26" height="26" viewBox="0 0 26 26" fill="none" xmlns="http://www.w3.org/2000/svg">
<path opacity="0.05" d="M16.4646 16.7264C17.7878 16.7264 18.8604 15.5346 18.8604 14.0644C18.8604 12.5942 17.7878 11.4023 16.4646 11.4023C15.1414 11.4023 14.0687 12.5942 14.0687 14.0644C14.0687 15.5346 15.1414 16.7264 16.4646 16.7264Z" fill="black"/>
<path opacity="0.05" d="M16.4654 16.4601C17.6416 16.4601 18.595 15.3875 18.595 14.0643C18.595 12.7411 17.6416 11.6685 16.4654 11.6685C15.2892 11.6685 14.3358 12.7411 14.3358 14.0643C14.3358 15.3875 15.2892 16.4601 16.4654 16.4601Z" fill="black"/>
<path opacity="0.05" d="M9.5441 16.7264C10.8673 16.7264 11.9399 15.5346 11.9399 14.0644C11.9399 12.5942 10.8673 11.4023 9.5441 11.4023C8.22092 11.4023 7.14827 12.5942 7.14827 14.0644C7.14827 15.5346 8.22092 16.7264 9.5441 16.7264Z" fill="black"/>
<path opacity="0.05" d="M9.54369 16.4601C10.7199 16.4601 11.6733 15.3875 11.6733 14.0643C11.6733 12.7411 10.7199 11.6685 9.54369 11.6685C8.36753 11.6685 7.41406 12.7411 7.41406 14.0643C7.41406 15.3875 8.36753 16.4601 9.54369 16.4601Z" fill="black"/>
<path fill-rule="evenodd" clip-rule="evenodd" d="M21.5794 6.69043C21.5448 6.63612 21.5054 6.59353 21.4538 6.55467C21.0444 6.24693 18.9669 4.77696 16.3081 4.49159C16.3027 4.49106 16.2825 4.48999 16.2777 4.48999C16.2255 4.48999 16.1803 4.52034 16.1585 4.56453L16.0152 4.85096H16.0147C16.0057 4.86853 16.0009 4.88876 16.0009 4.91006C16.0009 4.96809 16.0381 5.01761 16.0903 5.03571C16.0935 5.03677 16.1159 5.04156 16.1238 5.04316C18.3956 5.59048 19.7778 6.58182 20.9948 7.67592C18.8402 6.57596 16.7122 5.54575 13.0039 5.54575C9.29573 5.54575 7.16823 6.57649 5.01304 7.67592C6.23013 6.58182 7.61225 5.59048 9.88404 5.04316C9.88817 5.04206 9.89616 5.04038 9.90335 5.03888C9.91004 5.03748 9.91604 5.03622 9.91758 5.03571C9.96975 5.01761 10.007 4.96809 10.007 4.91006C10.007 4.88876 10.0022 4.86853 9.99318 4.85096H9.99265L9.84943 4.56453C9.8276 4.52034 9.78288 4.48999 9.73017 4.48999C9.72538 4.48999 9.70462 4.49106 9.69982 4.49159C7.04098 4.77696 4.96353 6.24693 4.55411 6.55467C4.50246 6.59353 4.4636 6.63612 4.42846 6.69043C4.05151 7.2798 1.74033 11.1563 1.29152 18.2075C1.28672 18.2831 1.31281 18.3613 1.36339 18.4178C3.8082 21.1565 7.31677 21.4802 8.06533 21.518C8.15425 21.5222 8.23943 21.4834 8.29267 21.412L8.97522 20.5021C9.02846 20.4308 8.99971 20.3307 8.91612 20.3004C7.47596 19.7754 5.87235 18.8629 4.4801 17.2624C6.20563 18.5668 8.80857 19.9208 13.0039 19.9208C17.1993 19.9208 19.8023 18.5668 21.5273 17.2624C20.1345 18.8629 18.5314 19.7749 17.0912 20.3004C17.0076 20.3307 16.9789 20.4308 17.0321 20.5021L17.7147 21.412C17.7685 21.4834 17.8531 21.5228 17.942 21.518C18.6911 21.4796 22.1991 21.1565 24.644 18.4178C24.6945 18.3613 24.7206 18.2831 24.7158 18.2075C24.2676 11.1563 21.9564 7.2798 21.5794 6.69043ZM16.465 16.1938C17.4941 16.1938 18.3284 15.2403 18.3284 14.0642C18.3284 12.888 17.4941 11.9345 16.465 11.9345C15.4358 11.9345 14.6016 12.888 14.6016 14.0642C14.6016 15.2403 15.4358 16.1938 16.465 16.1938ZM11.4068 14.0643C11.4068 15.2404 10.5725 16.1939 9.54335 16.1939C8.51421 16.1939 7.67992 15.2404 7.67992 14.0643C7.67992 12.8881 8.51421 11.9346 9.54335 11.9346C10.5725 11.9346 11.4068 12.8881 11.4068 14.0643Z" fill="white"/>
</svg>
