<svg width="22" height="22" viewBox="0 0 18 18" fill="none" xmlns="http://www.w3.org/2000/svg">
<g clip-path="url(#clip0_7642_41985)">
<path fill-rule="evenodd" clip-rule="evenodd" d="M8.77849 3.95017C8.78404 3.95027 8.78959 3.95039 8.79514 3.95052ZM12.3075 5.51363H12.3047L12.1658 5.65199C11.273 4.75597 10.0673 4.17916 8.78954 4.15044H8.6895C6.08334 4.15044 3.7775 6.47825 3.7775 9.11475C3.7775 11.72 6.08135 14.0245 8.6895 14.0245C10.0086 14.0245 11.2215 13.4958 12.1347 12.5912L12.4616 12.2675L12.4908 13.2415C12.4843 13.9246 12.9266 14.5091 13.5459 14.8029C14.1624 15.0955 14.9264 15.0854 15.5396 14.6058C16.9815 13.4828 17.7651 11.4564 17.7999 9.29168C17.8347 7.13018 17.1214 4.87178 15.6236 3.30578C12.7401 0.295444 7.94964 -0.306094 4.31873 1.85659C-0.417502 4.67329 -0.518064 10.1114 1.26951 13.2065C2.58961 15.4925 4.6628 16.6601 6.66963 17.148C8.68443 17.6378 10.6079 17.4364 11.5998 17.0133C12.2005 16.7578 12.3358 16.266 12.2231 15.9163C12.1655 15.7374 12.0435 15.592 11.8767 15.5157C11.712 15.4404 11.4827 15.4231 11.1932 15.5401C9.82941 16.09 8.02115 16.0846 6.36106 15.4938C4.69728 14.9018 3.16187 13.7142 2.36515 11.8768C0.911753 8.51931 2.40727 4.9515 4.74989 3.33294C6.95352 1.8144 11.0783 1.3715 14.1532 4.06493C14.2009 4.10667 14.2476 4.14884 14.2934 4.19143C15.8457 5.63636 16.2896 7.558 16.2081 9.26122C16.1661 10.1382 15.9849 10.9626 15.7407 11.6444C15.4979 12.3219 15.1864 12.8755 14.8736 13.1973C14.4371 13.643 13.7025 13.2685 13.7567 12.6408L13.7539 5.54288C13.7539 5.47349 13.7275 5.30466 13.6345 5.15973C13.5561 5.03749 13.4304 4.92962 13.2101 4.91269C13.1903 4.91117 13.1698 4.91038 13.1484 4.91038H13.0404C12.7841 4.91038 12.5727 5.08764 12.5201 5.37207C12.5118 5.41671 12.5075 5.46398 12.5075 5.51363H12.3075ZM12.3142 9.33001L12.3089 8.91591L12.3087 8.90811C12.1998 6.80377 10.6272 5.53075 8.74519 5.53075H8.67769C7.59219 5.53075 6.73648 5.96042 6.15503 6.64034C5.57667 7.31665 5.27875 8.22916 5.27875 9.18732C5.27875 10.2628 5.63993 11.1552 6.2522 11.7795C6.86427 12.4036 7.71488 12.7471 8.66925 12.7471C10.804 12.7471 12.212 11.1777 12.3142 9.33001Z" fill="white"/>
</g>
<defs>
<clipPath id="clip0_7642_41985">
<rect width="18" height="18" fill="white"/>
</clipPath>
</defs>
</svg>
