<svg width="28" height="28" viewBox="0 0 28 28" fill="none" xmlns="http://www.w3.org/2000/svg">
<g clip-path="url(#clip0_4068_21316)">
<path d="M22.9986 14.119C22.9986 14.119 27.6592 4.73557 19.0232 0.99133C17.3731 0.275473 15.585 -0.0618387 13.7889 0.00390592C3.69521 0.384418 -3.83718 12.3116 2.09561 21.6608C0.865134 17.4238 2.33224 14.1 4.19499 11.9139C7.38855 8.1659 11.5608 6.52778 16.0492 7.83865C18.5745 8.58065 21.2343 10.3234 22.9986 14.119Z" fill="white"/>
<path d="M6.32468 10.5478C6.32468 10.5478 0.62284 15.1482 2.66543 21.3696C3.30907 23.3273 4.78374 24.9046 6.49506 26.0537C7.88936 26.966 9.46168 27.5679 11.1065 27.8193C13.9036 28.2576 16.7672 27.8748 19.353 26.7168C21.9388 25.5588 24.1368 23.6749 25.6829 21.2916C27.699 18.1771 28.4998 14.3891 27.6858 10.7628C27.1425 8.33514 25.8703 5.83519 23.4321 3.56543C23.4321 3.56543 26.6049 8.81269 23.2712 14.5832C20.3408 19.6573 11.5457 23.8258 6.48558 18.1752C5.1207 16.5599 3.83533 13.7765 6.32468 10.5478Z" fill="white"/>
</g>
<defs>
<clipPath id="clip0_4068_21316">
<rect width="28" height="28" fill="white"/>
</clipPath>
</defs>
</svg>
