<svg width="20" height="18" viewBox="0 0 88 72" fill="none" xmlns="http://www.w3.org/2000/svg">
<g clip-path="url(#clip0_2108_43)">
<path d="M49.5 35.9999L58.03 45.7499L69.5 53.0799L71.5 36.0599L69.5 19.4199L57.81 25.8599L49.5 35.9999Z" fill="#00832D"/>
<path d="M0 51.5V66C0 69.315 2.685 72 6 72H20.5L23.5 61.04L20.5 51.5L10.55 48.5L0 51.5Z" fill="#0066DA"/>
<path d="M20.5 0L0 20.5L10.55 23.5L20.5 20.5L23.45 11.09L20.5 0Z" fill="#E94235"/>
<path d="M20.5 20.5H0V51.5H20.5V20.5Z" fill="#2684FC"/>
<path d="M82.6 8.68014L69.5 19.4201V53.0801L82.66 63.8701C84.63 65.4101 87.51 64.0051 87.51 61.5001V11.0001C87.51 8.46514 84.565 7.07514 82.6 8.68014ZM49.5 36.0001V51.5001H20.5V72.0001H63.5C66.815 72.0001 69.5 69.3151 69.5 66.0001V53.0801L49.5 36.0001Z" fill="#00AC47"/>
<path d="M63.5 0H20.5V20.5H49.5V36L69.5 19.43V6C69.5 2.685 66.815 0 63.5 0Z" fill="#FFBA00"/>
</g>
<defs>
<clipPath id="clip0_2108_43">
<rect width="87.5" height="72" fill="white"/>
</clipPath>
</defs>
</svg>
