<svg width="26" height="26" viewBox="0 0 26 26" fill="none" xmlns="http://www.w3.org/2000/svg">
<path d="M23.244 11.0002C23.3773 11.7141 23.4498 12.4605 23.4498 13.2394C23.4498 19.3321 19.3722 23.6644 13.2134 23.6644C11.8128 23.6648 10.4259 23.3892 9.13185 22.8535C7.8378 22.3177 6.662 21.5322 5.67164 20.5418C4.68128 19.5514 3.89577 18.3756 3.35999 17.0816C2.82421 15.7875 2.54866 14.4006 2.54908 13C2.54866 11.5994 2.82421 10.2125 3.35999 8.91846C3.89577 7.62441 4.68128 6.44861 5.67164 5.45825C6.662 4.46789 7.8378 3.68238 9.13185 3.1466C10.4259 2.61082 11.8128 2.33527 13.2134 2.33569C16.0929 2.33569 18.499 3.39519 20.345 5.11553L17.3387 8.12178V8.11419C16.2197 7.04819 14.7994 6.50111 13.2134 6.50111C9.69475 6.50111 6.83475 9.47378 6.83475 12.9935C6.83475 16.5122 9.69475 19.4914 13.2134 19.4914C16.406 19.4914 18.5792 17.6659 19.0255 15.1591H13.2134V11.0002H23.2451H23.244Z" fill="white"/>
</svg>
