<svg width="15" height="18" viewBox="0 0 15 18" fill="none" xmlns="http://www.w3.org/2000/svg">
<path fill-rule="evenodd" clip-rule="evenodd" d="M8.267 9H3.45005V3.9H8.267C8.9433 3.9 9.5919 4.16866 10.0701 4.64688C10.5483 5.1251 10.817 5.7737 10.817 6.45C10.817 7.1263 10.5483 7.77491 10.0701 8.25312C9.5919 8.73134 8.9433 9 8.267 9ZM8.267 0.5H0.0500488V17.5H3.45005V12.4H8.267C9.84504 12.4 11.3584 11.7731 12.4743 10.6573C13.5901 9.54144 14.217 8.02804 14.217 6.45C14.217 4.87196 13.5901 3.35856 12.4743 2.24272C11.3584 1.12687 9.84504 0.5 8.267 0.5Z" fill="white"/>
</svg>
