<svg width="19" height="27" viewBox="0 0 19 27" fill="none" xmlns="http://www.w3.org/2000/svg">
<path d="M14.9216 7.12576H16.4299C16.4658 5.88331 16.5226 4.88145 16.6005 4.12015C16.6783 3.35885 16.801 2.58233 16.9686 1.79057L16.8249 1.35207C15.951 0.913556 14.9186 0.578587 13.7275 0.347151C12.5364 0.115715 11.3064 0 10.0375 0C8.81646 0 7.62538 0.137032 6.46421 0.411101C5.30304 0.68517 4.2616 1.1389 3.33984 1.7723C2.41809 2.40571 1.67591 3.29794 1.11328 4.44903C0.550653 5.60012 0.269342 6.85777 0.269342 8.22203C0.269342 9.19649 0.424961 10.107 0.736202 10.9536C1.04744 11.8001 1.51729 12.5218 2.14576 13.1187C2.77423 13.7156 3.6032 14.1723 4.63269 14.489C5.31502 14.6961 6.73953 15.0311 8.90625 15.494C10.4146 15.8472 11.468 16.1883 12.0665 16.5171C12.6651 16.846 13.105 17.2845 13.3863 17.8327C13.6676 18.3808 13.8083 19.0386 13.8083 19.8059C13.8083 20.7195 13.6078 21.5356 13.2067 22.2543C12.8057 22.973 12.1593 23.5363 11.2675 23.9444C10.3757 24.3524 9.36114 24.5564 8.22392 24.5564C6.9191 24.5564 5.71605 24.2702 4.61473 23.6977C3.51341 23.1252 2.73532 22.4614 2.28043 21.7061C2.12481 20.4028 2.05897 19.3126 2.08291 18.4356H0.574597C0.562626 21.2737 0.371096 23.3871 0 24.7757C1.37664 25.4578 2.63955 25.939 3.78875 26.2191C4.93795 26.4993 6.24873 26.6394 7.72114 26.6394C9.73224 26.6394 11.456 26.347 12.8925 25.7623C13.7903 25.3969 14.6642 24.8457 15.5141 24.1088C16.364 23.3719 17.0284 22.5588 17.5072 21.6696C18.1417 20.4881 18.4589 19.1177 18.4589 17.5586C18.4589 16.6694 18.3452 15.8685 18.1178 15.1559C17.8903 14.4434 17.6 13.8526 17.2469 13.3836C16.8937 12.9147 16.4179 12.5005 15.8194 12.1412C15.2208 11.7819 14.4367 11.4743 13.4671 11.2185C13.096 11.1332 12.291 10.981 11.052 10.7617C9.81303 10.5425 8.8464 10.3598 8.15209 10.2136C7.24231 9.96997 6.554 9.70199 6.08713 9.40965C5.62027 9.11731 5.26115 8.72144 5.00977 8.22203C4.75838 7.72261 4.6267 7.07095 4.61473 6.26701C4.61473 5.14637 5.06064 4.16887 5.95246 3.33449C6.84429 2.5001 8.1042 2.08291 9.73223 2.08291C10.8695 2.08291 11.8959 2.28998 12.8117 2.70413C13.7275 3.11828 14.3709 3.59333 14.742 4.12928C14.8378 4.71396 14.8976 5.71278 14.9216 7.12576Z" fill="white"/>
</svg>
