<svg width="33" height="24" viewBox="0 0 33 24" fill="none" xmlns="http://www.w3.org/2000/svg">
<path d="M8.92194 4.63379L8.30177 4.03503C9.36083 2.96192 10.6235 2.10617 12.0175 1.51683C13.4115 0.927498 14.9094 0.616173 16.4252 0.600704C17.941 0.585235 19.4451 0.865927 20.851 1.42669C22.257 1.98745 23.5373 2.81725 24.6185 3.86852L24.011 4.48039C23.0113 3.50845 21.8275 2.74123 20.5276 2.22269C19.2277 1.70415 17.8371 1.44449 16.4355 1.45858C15.034 1.47267 13.649 1.76024 12.36 2.3048C11.071 2.84937 9.90323 3.64023 8.92367 4.63208L8.92194 4.63379Z" fill="white"/>
<path d="M16.5424 23.3973C14.9977 23.399 13.4686 23.0925 12.0463 22.4962C10.624 21.8999 9.33791 21.026 8.26476 19.9268L8.8878 19.3303C9.88193 20.3463 11.0725 21.154 12.3886 21.7054C13.7048 22.2567 15.1196 22.5405 16.5489 22.5397C17.9781 22.5389 19.3926 22.2536 20.7081 21.7007C22.0237 21.1479 23.2133 20.3389 24.2063 19.3218L24.8293 19.9177C23.7561 21.0196 22.469 21.8957 21.0452 22.4935C19.6214 23.0912 18.0903 23.3982 16.5436 23.3961L16.5424 23.3973Z" fill="white"/>
<path d="M27.516 9.01085C27.0508 8.58735 26.5038 8.26141 25.9079 8.05266C25.3119 7.84392 24.6795 7.75669 24.0486 7.79624C22.8566 7.7597 21.6929 8.15972 20.7806 8.91961C20.7455 8.94926 20.7092 8.97664 20.6746 9.00914L21.1587 9.6096C21.5474 9.25604 22.0027 8.9817 22.4985 8.80226C22.9944 8.62281 23.5211 8.54178 24.0486 8.56378C24.5766 8.52642 25.1067 8.5945 25.6075 8.76398C26.1083 8.93345 26.5696 9.20087 26.9638 9.5503C27.6318 10.2823 27.9814 11.2452 27.9367 12.2304V12.2538C27.9367 13.5745 26.7298 15.4352 24.048 15.4352C21.8342 15.4352 20.6412 14.3854 19.2302 12.3148V12.3108C19.198 12.2629 19.1645 12.2139 19.1311 12.1637L18.67 11.46L18.6124 11.3711L16.9525 8.82381L16.8481 8.66357L16.8522 8.65844C16.7035 8.43034 16.4822 8.14237 16.3767 8.00665C16.3652 7.99297 16.3559 7.97985 16.3473 7.96959L16.3358 7.9559L16.315 7.9291C15.8754 7.36241 15.3877 6.83379 14.8574 6.34896C13.1431 4.76622 10.8727 3.90705 8.5284 3.95395C7.32702 3.94347 6.135 4.16366 5.01837 4.60231C3.97907 5.01488 3.04007 5.64091 2.26338 6.43906C0.770951 8.01217 -0.0449929 10.0977 -0.0120884 12.255C-0.0148135 13.3333 0.216691 14.3997 0.666751 15.3819C1.11681 16.364 1.77492 17.239 2.59651 17.9477C4.12147 19.2833 6.08379 20.0271 8.12034 20.0416C10.5277 20.1027 12.8762 19.3007 14.7329 17.7834C15.3062 17.3114 15.8352 16.7891 16.3133 16.2227L15.7646 15.6701C15.3045 16.2222 14.7931 16.7304 14.2372 17.1881C12.5185 18.5897 10.3457 19.3293 8.11919 19.2706C6.27241 19.2573 4.49299 18.5828 3.11005 17.3717C2.37147 16.7343 1.77976 15.9474 1.37488 15.0643C0.970006 14.1812 0.761386 13.2224 0.763115 12.2527C0.732957 10.2961 1.47168 8.40444 2.8236 6.97623C3.52438 6.25524 4.37186 5.68965 5.31001 5.31683C6.33542 4.91549 7.42976 4.71467 8.53244 4.72548C10.6797 4.67945 12.7602 5.4645 14.3312 6.9135C14.9731 7.50413 15.5524 8.15797 16.0603 8.86487L18.2084 12.1654L18.3449 12.3736C19.9415 14.8022 21.387 16.2022 24.0509 16.2022C27.2687 16.2022 28.716 13.8927 28.716 12.255V12.2396C28.7602 11.0491 28.3291 9.88934 27.516 9.01085ZM30.2739 6.30905C29.4521 5.51933 28.4764 4.90346 27.4062 4.49896C26.336 4.09445 25.1938 3.90979 24.0492 3.95623C21.7997 3.9127 19.6212 4.73592 17.9738 6.25202C17.4265 6.74926 16.925 7.2937 16.4752 7.87892L16.8579 8.64304C17.3393 7.98347 17.8866 7.37347 18.4913 6.82226C19.9981 5.4381 21.9895 4.68747 24.0451 4.72891C25.0876 4.68367 26.1286 4.84876 27.1045 5.21413C28.0805 5.5795 28.9712 6.1375 29.7223 6.8542C30.4172 7.57365 30.9603 8.4228 31.32 9.35211C31.6797 10.2814 31.8488 11.2723 31.8173 12.2669C31.7903 14.071 31.0461 15.7919 29.7459 17.057C28.9915 17.7809 28.0996 18.3498 27.1217 18.7308C26.1438 19.1118 25.0994 19.2974 24.0486 19.2769C21.9276 19.3233 19.869 18.5651 18.2948 17.1579C17.69 16.6164 17.1412 16.0168 16.6562 15.3679L14.3969 11.9402C13.7397 10.8181 12.9085 9.80521 11.9335 8.93843C10.9737 8.16654 9.76536 7.76177 8.52898 7.79795C7.85428 7.76228 7.18001 7.87541 6.55493 8.12917C5.92984 8.38292 5.36957 8.77094 4.91463 9.26518C4.21808 10.1071 3.84688 11.1666 3.86738 12.2544C3.86738 14.6163 6.06562 16.2016 8.11861 16.2016C8.76917 16.21 9.41801 16.1333 10.0483 15.9735L9.63789 15.2835C9.13875 15.3899 8.62916 15.4407 8.11861 15.4352C6.44083 15.4352 4.64432 14.1567 4.64432 12.2538C4.64432 10.4701 5.66447 8.56435 8.5284 8.56435C10.533 8.56435 11.7013 9.4448 13.02 11.2804L13.0315 11.2969C13.1787 11.4992 13.3279 11.7161 13.4793 11.9476C13.485 11.9551 13.4901 11.9629 13.4949 11.971C13.7796 12.3878 14.1035 12.8702 14.1952 13.0339L15.7934 15.4574L15.7974 15.4626C15.8326 15.5133 16.1144 15.9188 16.3306 16.1987C16.7688 16.7483 17.2538 17.2598 17.7801 17.7276C19.4938 19.263 21.7367 20.0908 24.048 20.041C25.2007 20.0627 26.3463 19.8578 27.4183 19.438C28.4903 19.0183 29.4674 18.3921 30.2929 17.5958C31.7352 16.1858 32.5609 14.2722 32.5925 12.2664C32.6244 11.1709 32.4358 10.0801 32.0377 9.05738C31.6397 8.03467 31.0401 7.10045 30.2739 6.30905Z" fill="white"/>
<path d="M21.1228 10.6389C22.0198 10.6389 22.747 9.91948 22.747 9.03199C22.747 8.1445 22.0198 7.42505 21.1228 7.42505C20.2258 7.42505 19.4986 8.1445 19.4986 9.03199C19.4986 9.91948 20.2258 10.6389 21.1228 10.6389Z" fill="white"/>
<path d="M9.94378 17.1062C10.8408 17.1062 11.568 16.3868 11.568 15.4993C11.568 14.6118 10.8408 13.8923 9.94378 13.8923C9.04677 13.8923 8.3196 14.6118 8.3196 15.4993C8.3196 16.3868 9.04677 17.1062 9.94378 17.1062Z" fill="white"/>
</svg>
