<svg width="23" height="18" viewBox="0 0 20 16" fill="none" xmlns="http://www.w3.org/2000/svg">
<path d="M19.091 2.35819C18.4149 2.65022 17.6944 2.84378 16.9433 2.93777C17.716 2.4835 18.3058 1.76966 18.583 0.909237C17.8626 1.33217 17.0671 1.63092 16.2194 1.79763C15.5353 1.08043 14.5603 0.63623 13.4967 0.63623C11.433 0.63623 9.77168 2.28546 9.77168 4.30728C9.77168 4.59819 9.79668 4.87791 9.85804 5.1442C6.75918 4.99539 4.01713 3.53301 2.17509 1.30532C1.8535 1.85469 1.66486 2.4835 1.66486 3.16043C1.66486 4.43147 2.32963 5.55819 3.32054 6.2105C2.72168 6.19931 2.13418 6.02812 1.63645 5.75847C1.63645 5.76966 1.63645 5.7842 1.63645 5.79875C1.63645 7.58224 2.9285 9.06364 4.62282 9.4049C4.31941 9.48658 3.98873 9.52574 3.64554 9.52574C3.40691 9.52574 3.166 9.51231 2.93986 9.46308C3.42282 10.9165 4.79327 11.985 6.42282 12.0197C5.15463 12.9965 3.54441 13.585 1.80123 13.585C1.49554 13.585 1.20236 13.5716 0.90918 13.5347C2.56032 14.5831 4.51713 15.1817 6.62736 15.1817C13.4865 15.1817 17.2365 9.58728 17.2365 4.73805C17.2365 4.57581 17.2308 4.41917 17.2228 4.26364C17.9626 3.74672 18.5842 3.10113 19.091 2.35819Z" fill="white"/>
</svg>
