<svg width="14" height="14" viewBox="0 0 14 14" fill="none" xmlns="http://www.w3.org/2000/svg">
<path d="M9.54317 8.16663C9.58984 7.78163 9.62484 7.39663 9.62484 6.99996C9.62484 6.60329 9.58984 6.21829 9.54317 5.83329H11.5148C11.6082 6.20663 11.6665 6.59746 11.6665 6.99996C11.6665 7.40246 11.6082 7.79329 11.5148 8.16663H9.54317ZM8.51067 11.41C8.86067 10.7625 9.129 10.0625 9.31567 9.33329H11.0365C10.4714 10.3065 9.57474 11.0436 8.51067 11.41ZM8.36484 8.16663H5.63484C5.5765 7.78163 5.5415 7.39663 5.5415 6.99996C5.5415 6.60329 5.5765 6.21246 5.63484 5.83329H8.36484C8.41734 6.21246 8.45817 6.60329 8.45817 6.99996C8.45817 7.39663 8.41734 7.78163 8.36484 8.16663ZM6.99984 11.6433C6.51567 10.9433 6.12484 10.1675 5.88567 9.33329H8.114C7.87484 10.1675 7.484 10.9433 6.99984 11.6433ZM4.6665 4.66663H2.96317C3.5225 3.69083 4.41847 2.95249 5.48317 2.58996C5.13317 3.23746 4.87067 3.93746 4.6665 4.66663ZM2.96317 9.33329H4.6665C4.87067 10.0625 5.13317 10.7625 5.48317 11.41C4.4207 11.0434 3.526 10.3061 2.96317 9.33329ZM2.48484 8.16663C2.3915 7.79329 2.33317 7.40246 2.33317 6.99996C2.33317 6.59746 2.3915 6.20663 2.48484 5.83329H4.4565C4.40984 6.21829 4.37484 6.60329 4.37484 6.99996C4.37484 7.39663 4.40984 7.78163 4.4565 8.16663H2.48484ZM6.99984 2.35079C7.484 3.05079 7.87484 3.83246 8.114 4.66663H5.88567C6.12484 3.83246 6.51567 3.05079 6.99984 2.35079ZM11.0365 4.66663H9.31567C9.1331 3.94414 8.86276 3.24673 8.51067 2.58996C9.584 2.95746 10.4765 3.69829 11.0365 4.66663ZM6.99984 1.16663C3.774 1.16663 1.1665 3.79163 1.1665 6.99996C1.1665 8.54706 1.78109 10.0308 2.87505 11.1247C3.41672 11.6664 4.05978 12.0961 4.76752 12.3893C5.47525 12.6824 6.23379 12.8333 6.99984 12.8333C8.54693 12.8333 10.0307 12.2187 11.1246 11.1247C12.2186 10.0308 12.8332 8.54706 12.8332 6.99996C12.8332 6.23392 12.6823 5.47537 12.3891 4.76764C12.096 4.05991 11.6663 3.41685 11.1246 2.87517C10.583 2.33349 9.93989 1.90381 9.23216 1.61066C8.52443 1.31751 7.76588 1.16663 6.99984 1.16663Z" fill="black"/>
</svg>
