<svg width="32" height="32" viewBox="0 0 32 32" fill="none" xmlns="http://www.w3.org/2000/svg">
<g clip-path="url(#clip0_1826_25)">
<path d="M16 31.5C24.5604 31.5 31.5 24.5604 31.5 16C31.5 7.43959 24.5604 0.5 16 0.5C7.43959 0.5 0.5 7.43959 0.5 16C0.5 24.5604 7.43959 31.5 16 31.5Z" fill="#25D366"/>
<path d="M21.1614 16.9664C20.9025 16.8369 19.6378 16.2182 19.4009 16.1327C19.1653 16.046 18.9931 16.0033 18.821 16.2622C18.6501 16.5172 18.1556 17.0945 18.0054 17.2654C17.8553 17.4337 17.7051 17.4466 17.4488 17.3301C17.1899 17.2007 16.3588 16.9288 15.375 16.0486C14.6086 15.3625 14.0934 14.5211 13.942 14.2622C13.7918 14.0033 13.9251 13.8609 14.0546 13.7314C14.1711 13.6149 14.3135 13.4337 14.4429 13.2783C14.5698 13.123 14.6112 13.0194 14.6992 12.8512C14.7847 12.6699 14.742 12.5275 14.6772 12.3981C14.6125 12.2686 14.0973 11 13.8824 10.4952C13.6753 9.9903 13.4617 10.055 13.3025 10.055C13.1536 10.0421 12.9814 10.0421 12.8106 10.0421C12.6371 10.0421 12.3575 10.1068 12.1219 10.3528C11.8863 10.6117 11.2209 11.233 11.2209 12.4887C11.2209 13.7444 12.1439 14.9612 12.2721 15.1424C12.4015 15.3107 14.0895 17.8997 16.6734 19.013C17.2896 19.2719 17.7685 19.4272 18.1439 19.5567C18.7601 19.7509 19.3219 19.725 19.7659 19.6602C20.2617 19.5826 21.2909 19.0389 21.5058 18.4305C21.7258 17.822 21.7258 17.3172 21.6611 17.2007C21.5964 17.0842 21.4281 17.0195 21.1692 16.9029M16.4688 23.325H16.4559C14.9284 23.325 13.4138 22.9107 12.0934 22.134L11.7827 21.9489L8.54648 22.7904L9.41379 19.6447L9.20668 19.3211C8.3523 17.9619 7.89923 16.3955 7.89923 14.7826C7.89923 10.0835 11.7439 6.25178 16.4792 6.25178C18.7705 6.25178 20.9193 7.14499 22.5375 8.76312C24.1556 10.3683 25.0488 12.5172 25.0488 14.7955C25.0449 19.4945 21.2002 23.3263 16.4753 23.3263M23.7698 7.53204C21.8022 5.62912 19.2132 4.55469 16.4559 4.55469C10.7756 4.55469 6.15165 9.15794 6.14777 14.8175C6.14777 16.6259 6.62155 18.3903 7.52382 19.9489L6.06104 25.2667L11.5277 23.8402C13.0345 24.6557 14.7303 25.0881 16.4559 25.0894H16.4611C22.1439 25.0894 26.7705 20.4848 26.7731 14.824C26.7731 12.0835 25.7025 9.50357 23.7569 7.5644" fill="white"/>
</g>
<defs>
<clipPath id="clip0_1826_25">
<rect width="32" height="32" fill="white"/>
</clipPath>
</defs>
</svg>
