<svg width="757" height="534" viewBox="0 0 757 534" fill="none" xmlns="http://www.w3.org/2000/svg">
<path d="M741.172 83.2808C732.466 50.5001 706.818 24.6839 674.247 15.9226C615.214 0 378.494 0 378.494 0C378.494 0 141.778 0 82.7453 15.9226C50.1743 24.6839 24.5226 50.5001 15.8194 83.2808C0 142.7 0 266.668 0 266.668C0 266.668 0 390.636 15.8194 450.056C24.5226 482.836 50.1743 508.649 82.7453 517.414C141.778 533.333 378.494 533.333 378.494 533.333C378.494 533.333 615.214 533.333 674.247 517.414C706.818 508.649 732.466 482.833 741.172 450.059C756.992 390.633 756.992 266.668 756.992 266.668C756.992 266.668 756.992 142.7 741.172 83.2808Z" fill="white"/>
<path d="M301.075 379.22L498.927 266.672L301.075 154.113V379.22Z" fill="#0F1421"/>
</svg>
