<svg width="20" height="20" viewBox="0 0 29 29" fill="none" xmlns="http://www.w3.org/2000/svg">
<g clip-path="url(#clip0_2108_37)">
<path fill-rule="evenodd" clip-rule="evenodd" d="M3.21357 0.0692608C3.52511 0.00964543 3.84434 0.0038762 4.16165 0.00195312C11.1232 0.00579928 18.0847 0.00195313 25.0443 0.00579928C26.0174 -0.00573918 26.9924 0.35003 27.7097 1.00965C28.5366 1.74426 29.0078 2.84618 28.9943 3.95003C28.9963 10.702 28.9943 17.4558 28.9943 24.2077C28.9866 24.75 29.027 25.3 28.9213 25.8366C28.704 27.0173 27.902 28.0712 26.8213 28.5923C26.252 28.8789 25.6116 29.002 24.979 28.9962C18.2732 28.9981 11.5674 28.9962 4.86165 28.9962C4.16165 28.9904 3.44241 29.0423 2.76741 28.8231C1.50588 28.452 0.47703 27.3943 0.144338 26.1231C-0.0306624 25.5231 0.00972221 24.8923 0.00587606 24.2731C0.00587606 17.5 0.00395298 10.725 0.00587606 3.95003C-0.00181625 3.04811 0.303953 2.14234 0.87703 1.44426C1.4578 0.72503 2.30203 0.226953 3.21357 0.0692608ZM6.64818 9.62311C6.15011 9.76541 5.77511 10.25 5.77318 10.7712C5.76741 12.6231 5.77126 14.475 5.77126 16.327C5.76549 16.8058 5.86357 17.2885 6.07511 17.7173C6.56165 18.75 7.66934 19.4404 8.8078 19.427C11.5975 19.4282 14.3866 19.4282 17.1751 19.427C17.8213 19.4462 18.4078 18.8789 18.4059 18.2327C18.4116 16.45 18.4059 14.6673 18.4097 12.8846C18.4193 12.4673 18.3905 12.0423 18.252 11.6462C17.8732 10.4443 16.6751 9.57118 15.4155 9.57503C12.6943 9.56926 9.97318 9.57503 7.25203 9.57118C7.05203 9.57118 6.84434 9.56349 6.64818 9.62311ZM22.402 9.61541C22.3213 9.64041 22.2578 9.69426 22.1982 9.75003C21.2751 10.6327 20.3578 11.5193 19.429 12.3962C19.2251 12.5923 19.1309 12.8789 19.1424 13.1596C19.1424 14.1693 19.1386 15.1808 19.1424 16.1904C19.1405 16.4827 19.277 16.7654 19.5001 16.952C20.4116 17.7308 21.3213 18.5135 22.2328 19.2923C22.5828 19.6096 23.2136 19.3346 23.227 18.8616C23.2405 16.0481 23.227 13.2346 23.2347 10.4193C23.2328 10.2346 23.2482 10.0327 23.1386 9.87118C22.9943 9.62503 22.6674 9.51157 22.402 9.61541Z" fill="#518EF7"/>
<path d="M6.6482 9.62256C6.84435 9.56294 7.05204 9.57064 7.25204 9.57064C9.9732 9.57448 12.6944 9.56871 15.4155 9.57448C16.6751 9.57064 17.8732 10.4437 18.252 11.6456C18.3905 12.0418 18.4194 12.4668 18.4097 12.8841C18.4059 14.6668 18.4117 16.4495 18.4059 18.2322C18.4078 18.8783 17.8213 19.4456 17.1751 19.4264C14.3867 19.4277 11.5976 19.4277 8.80781 19.4264C7.66935 19.4399 6.56166 18.7495 6.07512 17.7168C5.86358 17.2879 5.76551 16.8053 5.77128 16.3264C5.77128 14.4745 5.76743 12.6226 5.7732 10.7706C5.77512 10.2495 6.15012 9.76487 6.6482 9.62256Z" fill="#FEFEFE"/>
<path d="M22.4019 9.61463C22.6673 9.51079 22.9943 9.62425 23.1385 9.8704C23.2481 10.0319 23.2327 10.2339 23.2346 10.4185C23.2269 13.2339 23.2404 16.0473 23.227 18.8608C23.2135 19.3339 22.5827 19.6089 22.2327 19.2916C21.3212 18.5127 20.4116 17.73 19.5 16.9512C19.2769 16.7646 19.1404 16.4819 19.1423 16.1896C19.1385 15.18 19.1423 14.1685 19.1423 13.1589C19.1308 12.8781 19.225 12.5916 19.4289 12.3954C20.3577 11.5185 21.275 10.6319 22.1981 9.74925C22.2577 9.69348 22.3212 9.63963 22.4019 9.61463Z" fill="#FEFEFE"/>
</g>
<defs>
<clipPath id="clip0_2108_37">
<rect width="29" height="29" fill="white"/>
</clipPath>
</defs>
</svg>
